PathFileType	4	(X/Y/Z)	\\Move.snu.ac.kr\motion\Animal\091204_091205_Bird\091205_bird\Project 2\Capture day 2\Session 1\pigeon_007_new_after_delete_unlabel.trc
DataRate	CameraRate	NumFrames	NumMarkers	Units	OrigDataRate	OrigDataStartFrame	OrigNumFrames
240.0	240.0	24	14	mm	240.0	1	5319
Frame#	Time	14MarkersBird:Head			14MarkersBird:C_back			14MarkersBird:Spine			14MarkersBird:L-shoulder			14MarkersBird:L-elbow			14MarkersBird:L-wrist			14MarkersBird:L-hand			14MarkersBird:R-shoulder			14MarkersBird:R-elbow			14MarkersBird:R-Wrist			14MarkersBird:R-hand			14MarkersBird:C_Tail			14MarkersBird:L-Tale			14MarkersBird:R-Tale			
		X1	Y1	Z1	X2	Y2	Z2	X3	Y3	Z3	X4	Y4	Z4	X5	Y5	Z5	X6	Y6	Z6	X7	Y7	Z7	X8	Y8	Z8	X9	Y9	Z9	X10	Y10	Z10	X11	Y11	Z11	X12	Y12	Z12	X13	Y13	Z13	X14	Y14	Z14	

2555	10.642	-2230.76245	950.30017	-1694.12476	-2275.98364	912.03772	-1706.04968	-2323.71509	888.85034	-1710.34241	-2237.16943	907.97687	-1722.87024	-2250.50708	908.93597	-1744.82190	-2212.60645	900.32721	-1763.06104	-2194.69702	898.59424	-1783.19128	-2246.25854	912.19812	-1669.72485	-2263.46240	910.69977	-1648.22437	-2238.66772	898.13348	-1622.42969	-2228.57520	892.88226	-1587.73035	-2387.27686	777.50128	-1714.95422	-2334.09668	801.26624	-1782.25159	-2357.60059	803.17114	-1629.12671	
2556	10.646	-2227.59692	952.08154	-1693.21912	-2274.24072	916.10266	-1705.05750	-2321.11670	892.21008	-1709.12256	-2234.27368	911.03833	-1722.11267	-2246.10327	907.04004	-1744.35742	-2205.88599	895.08850	-1753.75012	-2185.00952	886.67975	-1767.87439	-2243.49829	914.44843	-1668.78308	-2256.74780	907.72845	-1647.75757	-2227.20654	892.01965	-1629.71362	-2209.24390	879.56213	-1600.71399	-2384.86035	781.97858	-1718.56335	-2330.79980	808.24695	-1784.67200	-2355.14380	805.61853	-1630.48816	
2557	10.650	-2223.85522	953.63464	-1692.21484	-2272.31494	920.44989	-1703.92773	-2318.28906	895.63123	-1707.68640	-2231.81201	914.38904	-1721.30469	-2243.34033	905.98303	-1743.07068	-2201.89282	894.07458	-1743.73840	-2179.69751	880.85443	-1750.26660	-2241.55591	917.23950	-1668.18091	-2253.55859	906.78668	-1649.15466	-2218.38989	890.70831	-1638.61377	-2194.11182	873.06378	-1617.88782	-2382.03320	786.40631	-1722.93799	-2327.78979	815.34485	-1787.07898	-2353.27588	808.17334	-1632.00342	
2558	10.654	-2219.58765	955.00165	-1691.16821	-2270.08960	924.55145	-1702.91467	-2316.89380	900.30341	-1708.00830	-2229.61035	917.93774	-1720.51392	-2242.29883	906.31592	-1741.69214	-2200.35547	897.63251	-1735.54773	-2178.16040	882.15808	-1734.41846	-2239.18384	920.25409	-1667.56091	-2250.82593	906.56525	-1649.76013	-2213.07104	894.34509	-1646.37329	-2184.27661	874.10303	-1634.64758	-2379.22559	791.13342	-1727.78735	-2325.31079	822.53546	-1789.35681	-2352.22241	810.83594	-1633.69946	
2559	10.658	-2214.92358	956.19696	-1690.13037	-2267.34253	928.32697	-1701.90918	-2313.28784	903.06525	-1706.75537	-2227.43408	921.53833	-1719.77234	-2242.77979	908.59473	-1740.76794	-2200.69531	904.93250	-1731.25598	-2179.12158	889.36841	-1724.00159	-2236.52026	923.23096	-1666.92065	-2250.29639	908.29663	-1650.22241	-2211.40771	901.66351	-1650.80859	-2179.68311	881.08820	-1646.67285	-2376.73608	796.32141	-1732.62109	-2323.33667	829.77777	-1791.36047	-2352.20996	813.60657	-1635.60303	
2560	10.663	-2210.02808	957.20569	-1689.12451	-2264.64038	932.45929	-1701.28198	-2309.99854	906.18103	-1705.90979	-2225.07104	925.01343	-1719.06421	-2243.91846	910.60907	-1740.13696	-2202.18628	914.57782	-1731.46155	-2181.18872	899.76788	-1721.08557	-2233.58496	926.16705	-1666.29065	-2251.88037	912.18732	-1650.38098	-2212.59058	910.93848	-1651.13977	-2179.42725	890.88727	-1651.33398	-2374.59937	801.78540	-1736.83093	-2321.60474	837.01318	-1793.06030	-2353.07837	816.49097	-1637.69983	
2561	10.667	-2205.02979	957.94653	-1688.08777	-2259.90161	933.94733	-1699.07043	-2306.41919	909.05957	-1705.11438	-2222.43506	928.17511	-1718.32263	-2246.57715	918.54333	-1741.03442	-2204.36426	925.53802	-1734.94470	-2183.64063	910.81500	-1725.59827	-2230.48145	928.99164	-1665.68005	-2254.72388	916.28802	-1649.22290	-2215.41138	920.96960	-1648.11670	-2182.55078	900.72668	-1648.30005	-2372.57031	807.02167	-1739.90491	-2319.54663	844.00433	-1794.49744	-2352.77905	818.78998	-1639.60559	
2562	10.671	-2200.08276	958.40094	-1686.96680	-2255.40332	935.95782	-1697.56140	-2302.62988	911.65411	-1704.37512	-2219.45581	930.96478	-1717.45581	-2249.16089	927.93713	-1739.90210	-2207.25366	937.38184	-1739.25366	-2187.19312	921.41473	-1735.40759	-2227.33252	931.83820	-1665.24500	-2259.44019	924.43823	-1649.78381	-2218.90674	931.49261	-1643.66125	-2188.77734	909.61719	-1639.42480	-2370.14063	811.32568	-1741.57043	-2316.46216	850.33923	-1795.72449	-2349.07861	820.04425	-1641.63745	
2563	10.675	-2195.41748	958.74139	-1685.80920	-2251.01172	937.80627	-1696.21313	-2298.66016	913.89203	-1703.67346	-2216.15259	933.45117	-1716.37634	-2249.92139	937.31281	-1736.06580	-2211.01367	949.73340	-1741.84460	-2193.79199	932.04456	-1746.80176	-2224.25244	934.36072	-1664.49207	-2262.21387	934.78497	-1654.49695	-2222.49390	942.65820	-1640.14941	-2198.33081	918.63965	-1628.29333	-2366.75317	814.09521	-1741.85962	-2311.92236	855.66498	-1796.77185	-2345.30444	821.64874	-1642.59534	
2564	10.679	-2191.22534	959.21442	-1684.67480	-2246.76953	939.40851	-1695.07629	-2294.54565	915.75201	-1703.00977	-2212.63306	935.79730	-1715.04199	-2249.55884	944.91602	-1728.63574	-2215.40771	961.88184	-1741.03711	-2204.39038	944.06561	-1755.41956	-2220.80249	938.05560	-1665.03088	-2260.66553	944.52588	-1660.32007	-2225.88794	954.09692	-1639.43079	-2210.91235	929.76190	-1619.00732	-2362.18799	815.21039	-1741.06641	-2306.06128	859.89587	-1797.63477	-2340.45093	823.49799	-1642.30908	
2565	10.683	-2187.52881	959.99438	-1683.56335	-2242.66235	940.80389	-1694.12659	-2290.46460	917.35895	-1702.50940	-2209.01831	938.15814	-1713.48645	-2247.16675	951.23926	-1718.29456	-2219.68018	973.01483	-1736.44507	-2217.21680	958.43707	-1758.07983	-2218.57080	942.11700	-1667.12732	-2256.35669	951.36774	-1668.47083	-2228.59863	965.04230	-1642.06714	-2225.28052	944.28766	-1614.64856	-2356.81519	815.21423	-1739.66663	-2299.45752	863.11688	-1798.26086	-2335.25122	825.88727	-1640.74890	
2566	10.688	-2184.27173	961.22681	-1682.51733	-2238.67578	942.03180	-1693.34021	-2286.58203	918.79883	-1702.27747	-2205.46533	940.48224	-1711.81812	-2241.38208	955.08160	-1710.18530	-2222.81128	982.60498	-1728.95435	-2229.09155	974.69330	-1753.82019	-2216.09839	945.76514	-1668.77246	-2249.96021	955.53223	-1676.25732	-2230.01318	974.97180	-1647.38501	-2239.16675	962.00317	-1616.73926	-2351.47778	815.01233	-1738.20984	-2292.79175	865.34839	-1798.56812	-2330.38135	828.80499	-1638.19116	
2567	10.692	-2181.33545	962.95282	-1681.59375	-2234.79565	943.13165	-1692.69299	-2282.85547	919.93762	-1702.23572	-2202.09790	942.54297	-1710.19519	-2234.12109	958.93231	-1703.52100	-2223.82251	990.52478	-1720.32532	-2237.44165	991.00366	-1743.45361	-2213.33716	948.85358	-1669.83691	-2243.60474	957.29657	-1681.70203	-2229.65259	983.76947	-1653.96118	-2249.74292	981.17657	-1625.25537	-2347.06519	815.35547	-1737.16260	-2286.61011	866.51929	-1798.50049	-2326.24731	832.04492	-1635.08752	
2568	10.696	-2178.61743	965.09387	-1680.83472	-2231.00781	944.14282	-1692.16101	-2279.17285	920.56628	-1702.22375	-2198.86206	944.23285	-1708.80725	-2225.89185	963.29651	-1698.43579	-2222.17944	996.90540	-1712.68384	-2240.97803	1005.07117	-1729.46936	-2210.30713	951.43292	-1670.36707	-2236.87354	959.11975	-1685.14148	-2227.30884	991.35968	-1659.85413	-2254.83838	999.41125	-1638.03711	-2344.08154	816.57788	-1736.77368	-2281.33374	866.71881	-1798.12378	-2322.92725	835.33710	-1631.92712	
2569	10.700	-2176.01465	967.50592	-1680.17786	-2227.29785	945.10474	-1691.72009	-2275.59790	920.71692	-1702.22388	-2195.61646	945.63556	-1707.78284	-2217.87451	967.74860	-1695.05530	-2218.17090	1001.95935	-1708.08545	-2239.58789	1015.53650	-1716.03137	-2207.02832	953.55371	-1670.40942	-2229.86230	961.66296	-1686.37427	-2223.48462	997.37756	-1662.82959	-2253.91968	1014.83112	-1650.68933	-2342.46338	818.69958	-1737.03369	-2277.21069	866.40289	-1797.60095	-2320.27832	838.44629	-1629.16272	
2570	10.704	-2173.41333	970.05896	-1679.49744	-2223.65161	946.05670	-1691.34619	-2272.25854	920.67188	-1702.24792	-2192.23682	946.94318	-1707.11951	-2211.29028	971.23590	-1693.63550	-2212.85059	1005.74060	-1707.74475	-2234.07349	1022.78406	-1707.71899	-2203.52100	955.26660	-1670.01062	-2223.30176	964.84100	-1685.18420	-2219.50415	1001.37463	-1661.26892	-2248.49023	1026.55005	-1657.77124	-2341.61182	821.53094	-1737.72473	-2274.18018	866.31775	-1797.11353	-2318.10986	841.19653	-1627.21387	
2571	10.708	-2170.69214	972.60431	-1678.67615	-2220.05493	947.03827	-1691.01538	-2269.10620	920.85217	-1702.20056	-2188.67041	948.30402	-1706.72168	-2206.85742	973.03070	-1694.33740	-2207.25610	1007.98975	-1711.45923	-2225.93286	1028.00415	-1707.44482	-2199.80469	956.62219	-1669.21704	-2218.13013	968.03894	-1681.58044	-2216.59180	1003.02881	-1655.17798	-2241.54834	1034.17310	-1655.56604	-2340.63843	824.69855	-1738.50439	-2271.80493	867.17407	-1796.77478	-2316.37158	843.61981	-1626.39124	
2572	10.712	-2167.70435	974.95020	-1677.61658	-2216.49316	948.08868	-1690.70349	-2265.85718	921.62244	-1701.88098	-2184.91211	949.72284	-1706.41077	-2203.85596	973.56165	-1696.92554	-2201.65698	1008.36774	-1717.99792	-2216.78247	1031.40710	-1715.22656	-2195.89990	957.67108	-1668.07544	-2214.45166	970.63544	-1676.17517	-2214.77246	1002.16010	-1646.06104	-2235.51733	1036.92676	-1644.41711	-2338.83154	827.77203	-1739.04785	-2269.44702	869.38306	-1796.63000	-2315.12427	846.03595	-1626.70618	
2573	10.717	-2164.33081	976.94391	-1676.26636	-2212.95239	949.24738	-1690.38647	-2262.34229	923.25879	-1701.29419	-2180.93701	951.08868	-1706.00586	-2202.63940	974.17841	-1700.29248	-2195.63086	1006.71912	-1725.97827	-2207.05713	1031.78906	-1728.63647	-2191.82617	958.46393	-1666.63220	-2213.55981	972.89581	-1670.23096	-2212.80225	998.84717	-1635.74878	-2230.71289	1034.13977	-1627.79639	-2336.04370	830.56104	-1739.22156	-2266.57422	873.04767	-1796.68982	-2314.27881	848.86932	-1627.76965	
2574	10.721	-2160.60522	978.61053	-1674.69983	-2209.41821	950.55377	-1690.04041	-2258.62744	925.84717	-1700.62927	-2176.72534	952.29620	-1705.42993	-2199.90479	973.86096	-1705.95813	-2188.41577	1003.07660	-1734.27930	-2195.93042	1028.10583	-1744.09229	-2187.60376	959.05133	-1664.93384	-2211.51953	972.50696	-1663.90796	-2209.27344	993.36407	-1625.53979	-2225.43579	1025.96191	-1609.49512	-2332.65015	833.25903	-1739.14282	-2262.95020	878.04340	-1796.92590	-2313.44092	852.33490	-1628.92786	
2575	10.725	-2156.69019	980.16388	-1673.10718	-2205.87646	952.04730	-1689.64111	-2254.85059	929.24512	-1699.96399	-2172.26563	953.32727	-1704.71912	-2193.93213	973.43701	-1710.41699	-2179.32080	997.48737	-1741.97668	-2182.61353	1020.57343	-1758.20886	-2183.25269	959.48383	-1663.02710	-2206.03198	970.54309	-1656.05823	-2203.44360	985.91235	-1616.16638	-2217.51343	1013.20782	-1592.16943	-2329.12012	836.23474	-1739.08044	-2258.53516	883.95404	-1797.22314	-2312.07202	856.29028	-1629.58008	
2576	10.729	-2152.74365	981.82843	-1671.68103	-2202.31250	953.76727	-1689.16455	-2251.10205	933.12073	-1699.20703	-2167.60742	954.22162	-1703.97986	-2189.79712	973.37036	-1714.36841	-2168.24048	989.95746	-1748.13074	-2167.06030	1010.01025	-1768.84277	-2178.79297	959.81213	-1660.95825	-2202.02539	968.08990	-1650.30298	-2195.17651	976.61255	-1608.27039	-2205.84253	996.90625	-1577.58179	-2325.63647	839.68396	-1739.29822	-2253.35815	890.04077	-1797.38159	-2309.82666	860.36346	-1629.44385	
2577	10.733	-2148.83374	983.69122	-1670.54187	-2198.71265	955.75311	-1688.58679	-2247.40845	937.09949	-1698.32825	-2162.80493	955.06519	-1703.25977	-2183.30640	970.76312	-1719.27563	-2155.80664	980.60730	-1751.77124	-2149.94995	996.80176	-1774.95276	-2174.24438	960.08679	-1658.77393	-2196.56543	965.12109	-1643.92993	-2184.75854	965.74933	-1602.73328	-2190.57813	978.01904	-1567.36877	-2322.07129	843.52148	-1739.90417	-2247.59961	895.45154	-1797.19458	-2306.68970	864.25250	-1628.54810	
2578	10.738	-2144.93896	985.68610	-1669.72253	-2195.06226	958.04419	-1687.88379	-2243.72363	940.97144	-1697.37976	-2157.90820	956.01129	-1702.49976	-2174.61353	968.19153	-1723.69116	-2143.14795	969.99359	-1752.05176	-2132.55322	981.01239	-1775.91663	-2169.62720	960.35846	-1656.52063	-2190.06055	961.40387	-1638.14539	-2172.93359	954.07239	-1600.54333	-2172.66357	957.74756	-1563.15601	-2318.26636	847.51337	-1740.75647	-2241.69531	899.46130	-1796.52295	-2302.87354	867.87146	-1627.09607	
